<?xml version="1.0" encoding="UTF-8" standalone="no"?>
<!DOCTYPE svg PUBLIC "-//W3C//DTD SVG 1.1//EN" "http://www.w3.org/Graphics/SVG/1.1/DTD/svg11.dtd">
<svg xmlns="http://www.w3.org/2000/svg" xmlns:xlink="http://www.w3.org/1999/xlink" version="1.1" width="935.4pt" height="1247.28pt" viewBox="0 0 935.4 1247.28">
<g enable-background="new">
<g>
<g id="Layer-1" data-name="Artifact">
<clipPath id="cp0">
<path transform="matrix(1,0,0,-1,0,1247.28)" d="M 0 .00036621 L 935.4 .00036621 L 935.4 1247.2804 L 0 1247.2804 Z " fill-rule="evenodd"/>
</clipPath>
<g clip-path="url(#cp0)">
<path transform="matrix(1,0,0,-1,0,1247.28)" d="M 0 .00012207 L 935.4 .00012207 L 935.4 1247.2802 L 0 1247.2802 Z " fill="#ffffff" fill-rule="evenodd"/>
</g>
</g>
<g id="Layer-1" data-name="P">
<clipPath id="cp1">
<path transform="matrix(1,0,0,-1,0,1247.28)" d="M 0 .00036621 L 935.4 .00036621 L 935.4 1247.2804 L 0 1247.2804 Z " fill-rule="evenodd"/>
</clipPath>
<g clip-path="url(#cp1)">
<path transform="matrix(1,0,0,-1,0,1247.28)" stroke-width="3" stroke-linecap="butt" stroke-miterlimit="10" stroke-linejoin="miter" fill="none" stroke="#cbcbcb" d="M .06 82.26 L 935.43 82.26 "/>
</g>
</g>
<g id="Layer-1" data-name="P">
<path transform="matrix(1,0,0,-1,0,1247.28)" d="M 15.48 1212.62 C 15.48 1216.78 18.856 1220.16 23.02 1220.16 L 53.18 1220.16 C 57.344 1220.16 60.72 1216.78 60.72 1212.62 L 60.72 1008.22 C 60.72 1004.06 57.344 1000.68 53.18 1000.68 L 23.02 1000.68 C 18.856 1000.68 15.48 1004.06 15.48 1008.22 Z " fill="#4472c4" fill-rule="evenodd"/>
<path transform="matrix(1,0,0,-1,0,1247.28)" stroke-width="1" stroke-linecap="butt" stroke-miterlimit="10" stroke-linejoin="miter" fill="none" stroke="#31538f" d="M 15.48 1212.62 C 15.48 1216.78 18.856 1220.16 23.02 1220.16 L 53.18 1220.16 C 57.344 1220.16 60.72 1216.78 60.72 1212.62 L 60.72 1008.22 C 60.72 1004.06 57.344 1000.68 53.18 1000.68 L 23.02 1000.68 C 18.856 1000.68 15.48 1004.06 15.48 1008.22 Z "/>
</g>
<g id="Layer-1" data-name="Span">
<clipPath id="cp2">
<path transform="matrix(1,0,0,-1,0,1247.28)" d="M .000013939 0 L 935.4 0 L 935.4 1247.28 L .000013939 1247.28 Z " fill-rule="evenodd"/>
</clipPath>
<g clip-path="url(#cp2)">
<text fill="#ffffff" xml:space="preserve" transform="matrix(-.000000044 -1 1 -.000000044 0 1247.28)" font-size="24" font-family="Calibri"><tspan y="46.176046" x="1062.77 1073.786">Se</tspan><tspan y="46.17605" x="1085.786 1097.282 1105.658 1115.882 1128.4819 1134.002 1146.6019">arching</tspan></text>
</g>
</g>
<g id="Layer-1" data-name="P">
<path transform="matrix(1,0,0,-1,0,1247.28)" stroke-width="1" stroke-linecap="butt" stroke-miterlimit="10" stroke-linejoin="miter" fill="none" stroke="#31538f" d="M 87.48 1087.92 L 467.64 1087.92 L 467.64 1217.16 L 87.48 1217.16 Z "/>
</g>
<g id="Layer-1" data-name="Span">
<clipPath id="cp3">
<path transform="matrix(1,0,0,-1,0,1247.28)" d="M .000013939 0 L 935.4 0 L 935.4 1247.28 L .000013939 1247.28 Z " fill-rule="evenodd"/>
</clipPath>
<g clip-path="url(#cp3)">
<text xml:space="preserve" transform="matrix(1 0 -0 1 0 1247.28)" font-size="24" font-family="Calibri"><tspan y="-1173.29" x="99.912 112.944 124.968 135.12 147.76799 156.144 168.744 178.128 183.408 188.92801 201.52802 213.48001 226.08002 234.12001 239.64002 246.96002 252.48003 264.50404 277.10404 282.52806 290.56806 303.16807 311.54408 324.19209 336.79209 348.09608 360.69609 366.02409 378.62409 390.1201 398.1601 409.6561 422.2561 433.8001 443.1841 455.1361">Records identified through database </tspan></text>
</g>
</g>
<g id="Layer-1" data-name="Span">
<clipPath id="cp4">
<path transform="matrix(1,0,0,-1,0,1247.28)" d="M .000013939 0 L 935.4 0 L 935.4 1247.28 L .000013939 1247.28 Z " fill-rule="evenodd"/>
</clipPath>
<g clip-path="url(#cp4)">
<text xml:space="preserve" transform="matrix(1 0 -0 1 0 1247.28)" font-size="24.024" font-family="Calibri"><tspan y="-1144.25" x="106.03 113.30927 124.33629 134.57051 147.23116 159.77169 172.38428 181.77767 187.78366 193.0209 214.40227 226.36623 238.97882 244.40825 256.9728 264.30015 269.7776 280.8046 290.96675 296.49226 308.50425 321.11686 331.279 343.24296 350.5943 355.63935 365.0327 376.99668 388.50419 396.88856 407.0507 419.6633 425.1888 437.80143">(Scopus, Web of Science) searching</tspan></text>
</g>
</g>
<g id="Layer-1" data-name="Span">
<clipPath id="cp5">
<path transform="matrix(1,0,0,-1,0,1247.28)" d="M .000013939 0 L 935.4 0 L 935.4 1247.28 L .000013939 1247.28 Z " fill-rule="evenodd"/>
</clipPath>
<g clip-path="url(#cp5)">
<text xml:space="preserve" transform="matrix(1 0 -0 1 0 1247.28)" font-size="24" font-family="Calibri"><tspan y="-1115.66" x="163.15 170.422 183.022 188.35 200.302 205.726 217.894 230.062 242.11 247.534 259.486 264.91 277.078 289.15 301.318 313.38999 318.814 330.766 336.19 348.358 360.43 372.598 384.66999">(n = 789 + 1293 = 2082)</tspan></text>
</g>
</g>
<g id="Layer-1" data-name="P">
<path transform="matrix(1,0,0,-1,0,1247.28)" stroke-width="1" stroke-linecap="butt" stroke-miterlimit="10" stroke-linejoin="miter" fill="none" stroke="#31538f" d="M 523.32 1087.92 L 900 1087.92 L 900 1217.16 L 523.32 1217.16 Z "/>
</g>
<g id="Layer-1" data-name="Span">
<clipPath id="cp6">
<path transform="matrix(1,0,0,-1,0,1247.28)" d="M .000013939 0 L 935.4 0 L 935.4 1247.28 L .000013939 1247.28 Z " fill-rule="evenodd"/>
</clipPath>
<g clip-path="url(#cp6)">
<text xml:space="preserve" transform="matrix(1 0 -0 1 0 1247.28)" font-size="24" font-family="Calibri"><tspan y="-1173.29" x="544.13 557.162 569.18606 579.338 591.986 600.362 612.962 622.34597 627.626 633.146 645.746 657.698 670.298 678.33798 683.858 691.178 696.698 708.72207 721.322 726.74606 734.786 747.386 755.76199 768.41 781.00997 792.31399 804.91397 810.24197 825.3859 837.9619 850.6099 861.8419 867.36196 879.31399">Records identified through Google </tspan></text>
</g>
</g>
<g id="Layer-1" data-name="Span">
<clipPath id="cp7">
<path transform="matrix(1,0,0,-1,0,1247.28)" d="M .000013939 0 L 935.4 0 L 935.4 1247.28 L .000013939 1247.28 Z " fill-rule="evenodd"/>
</clipPath>
<g clip-path="url(#cp7)">
<text xml:space="preserve" transform="matrix(1 0 -0 1 0 1247.28)" font-size="24.024" font-family="Calibri"><tspan y="-1144.25" x="644.47 653.86337 664.0255 676.6381 689.29879 694.7522 706.2597 714.6441 720.6501 725.9594 731.4849 737.01046 746.4038 754.45187 766.4158">scholar, listed</tspan></text>
</g>
</g>
<g id="Layer-1" data-name="Span">
<clipPath id="cp8">
<path transform="matrix(1,0,0,-1,0,1247.28)" d="M .000013939 0 L 935.4 0 L 935.4 1247.28 L .000013939 1247.28 Z " fill-rule="evenodd"/>
</clipPath>
<g clip-path="url(#cp8)">
<text xml:space="preserve" transform="matrix(1 0 -0 1 0 1247.28)" font-size="24" font-family="Calibri"><tspan y="-1115.66" x="674.71 681.982 694.582 699.91 711.862 717.286 729.45407 741.6221">(n = 14)</tspan></text>
</g>
</g>
<g id="Layer-1" data-name="P">
<path transform="matrix(1,0,0,-1,0,1247.28)" stroke-width="1" stroke-linecap="butt" stroke-miterlimit="10" stroke-linejoin="miter" fill="none" stroke="#31538f" d="M 91.08 844.08 L 467.64 844.08 L 467.64 946.32 L 91.08 946.32 Z "/>
</g>
<g id="Layer-1" data-name="Span">
<clipPath id="cp9">
<path transform="matrix(1,0,0,-1,0,1247.28)" d="M .000013939 0 L 935.4 0 L 935.4 1247.28 L .000013939 1247.28 Z " fill-rule="evenodd"/>
</clipPath>
<g clip-path="url(#cp9)">
<text xml:space="preserve" transform="matrix(1 0 -0 1 0 1247.28)" font-size="24" font-family="Calibri"><tspan y="-901.34" x="114.89 127.922 139.946 150.09799 162.74599 171.122 183.722 193.106 198.386 209.882 217.20201 225.242 237.194 245.64202 250.92201 263.522 276.122 288.72203 294.242 299.762 309.914 321.41 329.45 341.49803 350.88203 356.13804 364.51405 376.51405 395.69004 408.33805 419.18605 431.13804">Records after duplicates removed</tspan></text>
</g>
</g>
<g id="Layer-1" data-name="Span">
<clipPath id="cp10">
<path transform="matrix(1,0,0,-1,0,1247.28)" d="M .000013939 0 L 935.4 0 L 935.4 1247.28 L .000013939 1247.28 Z " fill-rule="evenodd"/>
</clipPath>
<g clip-path="url(#cp10)">
<text xml:space="preserve" transform="matrix(1 0 -0 1 0 1247.28)" font-size="24" font-family="Calibri"><tspan y="-872.78" x="227.45 234.722 247.322 252.65001 264.60203 270.02604 282.19404 294.36204 306.41004 318.57804 323.93006">(n = 1455 )</tspan></text>
</g>
</g>
<g id="Layer-1" data-name="P">
<path transform="matrix(1,0,0,-1,0,1247.28)" d="M 15.48 939.14 C 15.48 943.3 18.856 946.68 23.02 946.68 L 53.18 946.68 C 57.344 946.68 60.72 943.3 60.72 939.14 L 60.72 166.9 C 60.72 162.74 57.344 159.36 53.18 159.36 L 23.02 159.36 C 18.856 159.36 15.48 162.74 15.48 166.9 Z " fill="#4472c4" fill-rule="evenodd"/>
<path transform="matrix(1,0,0,-1,0,1247.28)" stroke-width="1" stroke-linecap="butt" stroke-miterlimit="10" stroke-linejoin="miter" fill="none" stroke="#31538f" d="M 15.48 939.14 C 15.48 943.3 18.856 946.68 23.02 946.68 L 53.18 946.68 C 57.344 946.68 60.72 943.3 60.72 939.14 L 60.72 166.9 C 60.72 162.74 57.344 159.36 53.18 159.36 L 23.02 159.36 C 18.856 159.36 15.48 162.74 15.48 166.9 Z "/>
</g>
<g id="Layer-1" data-name="Span">
<clipPath id="cp11">
<path transform="matrix(1,0,0,-1,0,1247.28)" d="M .000013939 0 L 935.4 0 L 935.4 1247.28 L .000013939 1247.28 Z " fill-rule="evenodd"/>
</clipPath>
<g clip-path="url(#cp11)">
<text fill="#ffffff" xml:space="preserve" transform="matrix(-.000000044 -1 1 -.000000044 0 1247.28)" font-size="24" font-family="Calibri"><tspan y="46.17602" x="506.52 517.536 527.73599 536.11196 548.11196 560.06399">Screen</tspan><tspan y="46.176027" x="572.66397 578.18399 590.78396">ing</tspan></text>
</g>
</g>
<g id="Layer-1" data-name="P">
<path transform="matrix(1,0,0,-1,0,1247.28)" stroke-width="1" stroke-linecap="butt" stroke-miterlimit="10" stroke-linejoin="miter" fill="none" stroke="#31538f" d="M 91.08 681.72 L 467.64 681.72 L 467.64 783.95999 L 91.08 783.95999 Z "/>
</g>
<g id="Layer-1" data-name="Span">
<clipPath id="cp12">
<path transform="matrix(1,0,0,-1,0,1247.28)" d="M .000013939 0 L 935.4 0 L 935.4 1247.28 L .000013939 1247.28 Z " fill-rule="evenodd"/>
</clipPath>
<g clip-path="url(#cp12)">
<text xml:space="preserve" transform="matrix(1 0 -0 1 0 1247.28)" font-size="24" font-family="Calibri"><tspan y="-753.5" x="146.33 159.362 171.386 181.538 194.18599 202.562 215.162 224.546 229.826 241.322 248.64202 256.682 268.634 277.082 282.362 290.402 295.922 303.962 309.482 321.434 327.434 332.762 344.258 356.858 366.242 374.282 382.65803 394.15403 404.37803 412.41804">Records after title, abstract </tspan></text>
</g>
</g>
<g id="Layer-1" data-name="Span">
<clipPath id="cp13">
<path transform="matrix(1,0,0,-1,0,1247.28)" d="M .000013939 0 L 935.4 0 L 935.4 1247.28 L .000013939 1247.28 Z " fill-rule="evenodd"/>
</clipPath>
<g clip-path="url(#cp13)">
<text xml:space="preserve" transform="matrix(1 0 -0 1 0 1247.28)" font-size="24.024" font-family="Calibri"><tspan y="-724.7" x="232.37 241.76338 251.92554 260.3099 272.27388 284.3099 296.92253 302.44804 315.06065">screening</tspan></text>
</g>
</g>
<g id="Layer-1" data-name="Span">
<clipPath id="cp14">
<path transform="matrix(1,0,0,-1,0,1247.28)" d="M .000013939 0 L 935.4 0 L 935.4 1247.28 L .000013939 1247.28 Z " fill-rule="evenodd"/>
</clipPath>
<g clip-path="url(#cp14)">
<text xml:space="preserve" transform="matrix(1 0 -0 1 0 1247.28)" font-size="24" font-family="Calibri"><tspan y="-695.88" x="236.21 243.48201 256.082 261.41 273.362 278.786 290.954 303.122 315.17">(n = 190)</tspan></text>
</g>
</g>
<g id="Layer-1" data-name="P">
<path transform="matrix(1,0,0,-1,0,1247.28)" stroke-width="1" stroke-linecap="butt" stroke-miterlimit="10" stroke-linejoin="miter" fill="none" stroke="#31538f" d="M 91.08 521.76 L 467.64 521.76 L 467.64 624 L 91.08 624 Z "/>
</g>
<g id="Layer-1" data-name="Span">
<clipPath id="cp15">
<path transform="matrix(1,0,0,-1,0,1247.28)" d="M .000013939 0 L 935.4 0 L 935.4 1247.28 L .000013939 1247.28 Z " fill-rule="evenodd"/>
</clipPath>
<g clip-path="url(#cp15)">
<text xml:space="preserve" transform="matrix(1 0 -0 1 0 1247.28)" font-size="24" font-family="Calibri"><tspan y="-578.88" x="142.85 156.746 165.12201 173.162 178.682 188.90602 194.42603 206.37802 215.76203 220.94602 229.32202 241.32202 249.36202 257.738 263.258 275.21 286.05799 298.05799 310.658 316.082 327.578 335.618 340.898 348.21803 360.81803 366.338 371.858 377.282 385.32203 397.27403 407.66603">Articles retrieved at full text</tspan></text>
</g>
</g>
<g id="Layer-1" data-name="Span">
<clipPath id="cp16">
<path transform="matrix(1,0,0,-1,0,1247.28)" d="M .000013939 0 L 935.4 0 L 935.4 1247.28 L .000013939 1247.28 Z " fill-rule="evenodd"/>
</clipPath>
<g clip-path="url(#cp16)">
<text xml:space="preserve" transform="matrix(1 0 -0 1 0 1247.28)" font-size="24" font-family="Calibri"><tspan y="-550.32" x="236.21 243.48201 256.082 261.41 273.362 278.786 290.954 303.122 315.17">(n = 184)</tspan></text>
</g>
</g>
<g id="Layer-1" data-name="P">
<path transform="matrix(1,0,0,-1,0,1247.28)" stroke-width="1" stroke-linecap="butt" stroke-miterlimit="10" stroke-linejoin="miter" fill="none" stroke="#31538f" d="M 91.08 346.92 L 467.64 346.92 L 467.64 461.76 L 91.08 461.76 Z "/>
</g>
<g id="Layer-1" data-name="Span">
<clipPath id="cp17">
<path transform="matrix(1,0,0,-1,0,1247.28)" d="M .000013939 0 L 935.4 0 L 935.4 1247.28 L .000013939 1247.28 Z " fill-rule="evenodd"/>
</clipPath>
<g clip-path="url(#cp17)">
<text xml:space="preserve" transform="matrix(1 0 -0 1 0 1247.28)" font-size="24.024" font-family="Calibri"><tspan y="-425.04" x="98.568 112.4779 120.862277 128.91031 134.43582 144.59798 150.1235 162.13552 171.5289 176.64601 188.1535 195.48082 203.52886 215.49282 223.8772 229.30663 236.63394 249.24654 254.77207 260.29759 265.727 273.77503 285.73899 296.1414 304.18943 309.35459 318.74797 328.9101 337.29447 349.25843 361.29447 373.90708 379.4326 392.0452 403.3605 408.5737 421.23435 429.6187 434.97605 447.6367 460.17723">Articles after full text screening or on </tspan></text>
</g>
</g>
<g id="Layer-1" data-name="Span">
<clipPath id="cp18">
<path transform="matrix(1,0,0,-1,0,1247.28)" d="M .000013939 0 L 935.4 0 L 935.4 1247.28 L .000013939 1247.28 Z " fill-rule="evenodd"/>
</clipPath>
<g clip-path="url(#cp18)">
<text xml:space="preserve" transform="matrix(1 0 -0 1 0 1247.28)" font-size="24" font-family="Calibri"><tspan y="-395.98" x="151.97 160.01 172.61 184.562 189.986 202.586 214.082 223.466 228.98601 238.37001 243.794 256.37004 263.69004 269.11405 281.45005 287.49806 300.29005">the basis of PICO</tspan></text>
</g>
</g>
<g id="Layer-1" data-name="Span">
<clipPath id="cp19">
<path transform="matrix(1,0,0,-1,0,1247.28)" d="M .000013939 0 L 935.4 0 L 935.4 1247.28 L .000013939 1247.28 Z " fill-rule="evenodd"/>
</clipPath>
<g clip-path="url(#cp19)">
<text xml:space="preserve" transform="matrix(1 0 -0 1 0 1247.28)" font-size="24" font-family="Calibri"><tspan y="-395.98" x="321.55 334.15 346.75 358.702 368.086 376.126 381.646 394.294">question</tspan></text>
</g>
</g>
<g id="Layer-1" data-name="Span">
<clipPath id="cp20">
<path transform="matrix(1,0,0,-1,0,1247.28)" d="M .000013939 0 L 935.4 0 L 935.4 1247.28 L .000013939 1247.28 Z " fill-rule="evenodd"/>
</clipPath>
<g clip-path="url(#cp20)">
<text xml:space="preserve" transform="matrix(1 0 -0 1 0 1247.28)" font-size="24" font-family="Calibri"><tspan y="-367.42" x="245.69 252.962 265.562 270.89 282.842 288.26603 300.43403 305.85804">(n = 3 )</tspan></text>
</g>
</g>
<g id="Layer-1" data-name="P">
<path transform="matrix(1,0,0,-1,0,1247.28)" stroke-width="1" stroke-linecap="butt" stroke-miterlimit="10" stroke-linejoin="miter" fill="none" stroke="#31538f" d="M 523.32 844.08 L 900 844.08 L 900 946.32 L 523.32 946.32 Z "/>
</g>
<g id="Layer-1" data-name="Span">
<clipPath id="cp21">
<path transform="matrix(1,0,0,-1,0,1247.28)" d="M .000013939 0 L 935.4 0 L 935.4 1247.28 L .000013939 1247.28 Z " fill-rule="evenodd"/>
</clipPath>
<g clip-path="url(#cp21)">
<text xml:space="preserve" transform="matrix(1 0 -0 1 0 1247.28)" font-size="24" font-family="Calibri"><tspan y="-901.34" x="660.67 675.43 688.02999 700.62997 706.14999 711.67 721.82199 733.31796 741.3579 753.40597">Duplicates</tspan></text>
</g>
</g>
<g id="Layer-1" data-name="Span">
<clipPath id="cp22">
<path transform="matrix(1,0,0,-1,0,1247.28)" d="M .000013939 0 L 935.4 0 L 935.4 1247.28 L .000013939 1247.28 Z " fill-rule="evenodd"/>
</clipPath>
<g clip-path="url(#cp22)">
<text xml:space="preserve" transform="matrix(1 0 -0 1 0 1247.28)" font-size="24" font-family="Calibri"><tspan y="-872.78" x="668.59 675.862 688.462 693.79 705.742 711.166 723.33407 735.5021 747.5501">(n = 641)</tspan></text>
</g>
</g>
<g id="Layer-1" data-name="P">
<path transform="matrix(1,0,0,-1,0,1247.28)" stroke-width="1" stroke-linecap="butt" stroke-miterlimit="10" stroke-linejoin="miter" fill="none" stroke="#31538f" d="M 523.32 681.72 L 900 681.72 L 900 783.95999 L 523.32 783.95999 Z "/>
</g>
<g id="Layer-1" data-name="Span">
<clipPath id="cp23">
<path transform="matrix(1,0,0,-1,0,1247.28)" d="M .000013939 0 L 935.4 0 L 935.4 1247.28 L .000013939 1247.28 Z " fill-rule="evenodd"/>
</clipPath>
<g clip-path="url(#cp23)">
<text xml:space="preserve" transform="matrix(1 0 -0 1 0 1247.28)" font-size="24" font-family="Calibri"><tspan y="-738.86" x="595.49 607.20199 617.666 627.818 633.338 645.938 658.53799 670.562 683.162 688.442 696.482 702.002 710.042 715.562 727.51406 736.898 742.898 748.202 759.698 772.298 781.68197 789.7219 798.0979 809.5939 819.8179">Excluded titles, abstract</tspan></text>
</g>
</g>
<g id="Layer-1" data-name="Span">
<clipPath id="cp24">
<path transform="matrix(1,0,0,-1,0,1247.28)" d="M .000013939 0 L 935.4 0 L 935.4 1247.28 L .000013939 1247.28 Z " fill-rule="evenodd"/>
</clipPath>
<g clip-path="url(#cp24)">
<text xml:space="preserve" transform="matrix(1 0 -0 1 0 1247.28)" font-size="24.024" font-family="Calibri"><tspan y="-710.3" x="662.59 669.8693 682.48196 687.79129 699.7552 705.18466 717.3648 729.42489 741.60507 753.6651">(n = 1265)</tspan></text>
</g>
</g>
<g id="Layer-1" data-name="P">
<path transform="matrix(1,0,0,-1,0,1247.28)" stroke-width="1" stroke-linecap="butt" stroke-miterlimit="10" stroke-linejoin="miter" fill="none" stroke="#31538f" d="M 523.32 521.76 L 900 521.76 L 900 624 L 523.32 624 Z "/>
</g>
<g id="Layer-1" data-name="Span">
<clipPath id="cp25">
<path transform="matrix(1,0,0,-1,0,1247.28)" d="M .000013939 0 L 935.4 0 L 935.4 1247.28 L .000013939 1247.28 Z " fill-rule="evenodd"/>
</clipPath>
<g clip-path="url(#cp25)">
<text xml:space="preserve" transform="matrix(1 0 -0 1 0 1247.28)" font-size="24" font-family="Calibri"><tspan y="-593.28" x="599.57 614.978 627.578 635.954 647.906 655.946 664.32199 669.842 681.866 692.71408 704.21 716.81 722.33 734.28207 739.70608 747.02609 759.62606 765.14608 770.6661 776.0901 784.13009 796.0821 806.4741 814.5141">Unretrievable full texts</tspan></text>
</g>
</g>
<g id="Layer-1" data-name="Span">
<clipPath id="cp26">
<path transform="matrix(1,0,0,-1,0,1247.28)" d="M .000013939 0 L 935.4 0 L 935.4 1247.28 L .000013939 1247.28 Z " fill-rule="evenodd"/>
</clipPath>
<g clip-path="url(#cp26)">
<text xml:space="preserve" transform="matrix(1 0 -0 1 0 1247.28)" font-size="24" font-family="Calibri"><tspan y="-564.72" x="550.37 557.64199 573.146 585.794 593.834 599.08999 610.58596 620.7379 630.9859 642.9379 652.3219 661.7059 667.2259 679.82589 685.3459 697.2979 703.2979 708.6259 721.2259 726.6499 738.6019 744.02597 756.194 762.626 767.906 783.41006 795.986 804.026 809.306 816.62606 829.27407 841.874 854.474 867.074 873.074">(Not accessible, n = 6; Not found, </tspan></text>
</g>
</g>
<g id="Layer-1" data-name="Span">
<clipPath id="cp27">
<path transform="matrix(1,0,0,-1,0,1247.28)" d="M .000013939 0 L 935.4 0 L 935.4 1247.28 L .000013939 1247.28 Z " fill-rule="evenodd"/>
</clipPath>
<g clip-path="url(#cp27)">
<text xml:space="preserve" transform="matrix(1 0 -0 1 0 1247.28)" font-size="24" font-family="Calibri"><tspan y="-535.92" x="684.31 696.91 702.334 714.286 719.71 731.87808">n = 0)</tspan></text>
</g>
</g>
<g id="Layer-1" data-name="P">
<path transform="matrix(1,0,0,-1,0,1247.28)" stroke-width="1" stroke-linecap="butt" stroke-miterlimit="10" stroke-linejoin="miter" fill="none" stroke="#31538f" d="M 523.32 159.36 L 900 159.36 L 900 461.52003 L 523.32 461.52003 Z "/>
</g>
<g id="Layer-1" data-name="Span">
<clipPath id="cp28">
<path transform="matrix(1,0,0,-1,0,1247.28)" d="M .000013939 0 L 935.4 0 L 935.4 1247.28 L .000013939 1247.28 Z " fill-rule="evenodd"/>
</clipPath>
<g clip-path="url(#cp28)">
<text xml:space="preserve" transform="matrix(1 0 -0 1 0 1247.28)" font-size="24.024" font-family="Calibri"><tspan y="-431.64" x="555.22 566.94369 577.44216 587.6043 593.1298 605.74246 618.4031 630.367 642.9796 648.337 655.6643 668.2769 673.8024 679.32797 684.7574 692.8054 704.76937 715.2678 723.31588 732.7092 738.7152 744.0005 761.1777 766.7032 774.7512 787.36386 792.67318 801.05758 813.09359 824.6011 833.99447 846.6551 859.2677">Excluded full texts, with reasons</tspan></text>
</g>
</g>
<g id="Layer-1" data-name="Span">
<clipPath id="cp29">
<path transform="matrix(1,0,0,-1,0,1247.28)" d="M .000013939 0 L 935.4 0 L 935.4 1247.28 L .000013939 1247.28 Z " fill-rule="evenodd"/>
</clipPath>
<g clip-path="url(#cp29)">
<text xml:space="preserve" transform="matrix(1 0 -0 1 0 1247.28)" font-size="24" font-family="Calibri"><tspan y="-402.82" x="668.52 675.792 688.39199 693.72 705.672 711.096 723.26406 735.43209 747.4801">(n = 181)</tspan></text>
</g>
</g>
<g id="Layer-1" data-name="Span">
<clipPath id="cp30">
<path transform="matrix(1,0,0,-1,0,1247.28)" d="M .000013939 0 L 935.4 0 L 935.4 1247.28 L .000013939 1247.28 Z " fill-rule="evenodd"/>
</clipPath>
<g clip-path="url(#cp30)">
<text xml:space="preserve" transform="matrix(1 0 -0 1 0 1247.28)" font-size="24" font-family="Calibri"><tspan y="-374.02" x="562.92 574.63198 585.096 595.248 600.768 613.368 625.96798 637.992 650.592 655.872 668.52 681.12 687.552">Excluded on: </tspan></text>
</g>
</g>
<g id="Layer-1" data-name="Span">
<clipPath id="cp31">
<path transform="matrix(1,0,0,-1,0,1247.28)" d="M .000013939 0 L 935.4 0 L 935.4 1247.28 L .000013939 1247.28 Z " fill-rule="evenodd"/>
</clipPath>
<g clip-path="url(#cp31)">
<text xml:space="preserve" transform="matrix(1 0 -0 1 0 1247.28)" font-size="24" font-family="Calibri" font-weight="bold"><tspan y="-374.02" x="692.88 705.648 711.96 724.656">PICO</tspan></text>
</g>
</g>
<g id="Layer-1" data-name="Span">
<clipPath id="cp32">
<path transform="matrix(1,0,0,-1,0,1247.28)" d="M .000013939 0 L 935.4 0 L 935.4 1247.28 L .000013939 1247.28 Z " fill-rule="evenodd"/>
</clipPath>
<g clip-path="url(#cp32)">
<text xml:space="preserve" transform="matrix(1 0 -0 1 0 1247.28)" font-size="15.96" font-family="ArialMT"><tspan y="-345.46" x="557.26">&#x2022;</tspan></text>
</g>
</g>
<g id="Layer-1" data-name="Span">
<clipPath id="cp33">
<path transform="matrix(1,0,0,-1,0,1247.28)" d="M .000013939 0 L 935.4 0 L 935.4 1247.28 L .000013939 1247.28 Z " fill-rule="evenodd"/>
</clipPath>
<g clip-path="url(#cp33)">
<text xml:space="preserve" transform="matrix(1 0 -0 1 0 1247.28)" font-size="24" font-family="Calibri" font-weight="bold"><tspan y="-345.46" x="566.16">P</tspan></text>
</g>
</g>
<g id="Layer-1" data-name="Span">
<clipPath id="cp34">
<path transform="matrix(1,0,0,-1,0,1247.28)" d="M .000013939 0 L 935.4 0 L 935.4 1247.28 L .000013939 1247.28 Z " fill-rule="evenodd"/>
</clipPath>
<g clip-path="url(#cp34)">
<text xml:space="preserve" transform="matrix(1 0 -0 1 0 1247.28)" font-size="24" font-family="Calibri"><tspan y="-345.46" x="578.88 591.528 604.128 616.72799 622.248 633.74398 641.78396 647.30398 659.87997 672.4799 677.90396 689.85598 695.27999 705.36 710.88 718.92 726.95999 738.912 747.33596 752.61599 764.11196 776.7119 789.3119 794.7359 805.7519 818.3999 826.7759 838.7279 848.1119 856.15188">opulation = Litter and Forest </tspan></text>
</g>
</g>
<g id="Layer-1" data-name="Span">
<clipPath id="cp35">
<path transform="matrix(1,0,0,-1,0,1247.28)" d="M .000013939 0 L 935.4 0 L 935.4 1247.28 L .000013939 1247.28 Z " fill-rule="evenodd"/>
</clipPath>
<g clip-path="url(#cp35)">
<text xml:space="preserve" transform="matrix(1 0 -0 1 0 1247.28)" font-size="24" font-family="Calibri"><tspan y="-316.42" x="566.16 578.112 588.336 600.984 610.29598 621.16799 630.55197 638.5919 650.5919">ecosystem</tspan></text>
</g>
</g>
<g id="Layer-1" data-name="Span">
<clipPath id="cp36">
<path transform="matrix(1,0,0,-1,0,1247.28)" d="M .000013939 0 L 935.4 0 L 935.4 1247.28 L .000013939 1247.28 Z " fill-rule="evenodd"/>
</clipPath>
<g clip-path="url(#cp36)">
<text xml:space="preserve" transform="matrix(1 0 -0 1 0 1247.28)" font-size="15.96" font-family="ArialMT"><tspan y="-287.62" x="557.26">&#x2022;</tspan></text>
</g>
</g>
<g id="Layer-1" data-name="Span">
<clipPath id="cp37">
<path transform="matrix(1,0,0,-1,0,1247.28)" d="M .000013939 0 L 935.4 0 L 935.4 1247.28 L .000013939 1247.28 Z " fill-rule="evenodd"/>
</clipPath>
<g clip-path="url(#cp37)">
<text xml:space="preserve" transform="matrix(1 0 -0 1 0 1247.28)" font-size="24" font-family="Calibri" font-weight="bold"><tspan y="-287.62" x="566.16">I</tspan></text>
</g>
</g>
<g id="Layer-1" data-name="Span">
<clipPath id="cp38">
<path transform="matrix(1,0,0,-1,0,1247.28)" d="M .000013939 0 L 935.4 0 L 935.4 1247.28 L .000013939 1247.28 Z " fill-rule="evenodd"/>
</clipPath>
<g clip-path="url(#cp38)">
<text xml:space="preserve" transform="matrix(1 0 -0 1 0 1247.28)" font-size="24" font-family="Calibri"><tspan y="-287.62" x="572.52 585.12 593.16 605.112 613.53598 624.384 636.336 648.936 656.97598 662.496 675.144 687.74398 693.09597 705.048 710.472 730.992 741.912 752.06399 764.712 773.08798 781.4639 794.0639 799.5839 809.0639">ntervention = Mycorrhiza</tspan></text>
</g>
</g>
<g id="Layer-1" data-name="Span">
<clipPath id="cp39">
<path transform="matrix(1,0,0,-1,0,1247.28)" d="M .000013939 0 L 935.4 0 L 935.4 1247.28 L .000013939 1247.28 Z " fill-rule="evenodd"/>
</clipPath>
<g clip-path="url(#cp39)">
<text xml:space="preserve" transform="matrix(1 0 -0 1 0 1247.28)" font-size="15.96" font-family="ArialMT"><tspan y="-259.06" x="557.26">&#x2022;</tspan></text>
</g>
</g>
<g id="Layer-1" data-name="Span">
<clipPath id="cp40">
<path transform="matrix(1,0,0,-1,0,1247.28)" d="M .000013939 0 L 935.4 0 L 935.4 1247.28 L .000013939 1247.28 Z " fill-rule="evenodd"/>
</clipPath>
<g clip-path="url(#cp40)">
<text xml:space="preserve" transform="matrix(1 0 -0 1 0 1247.28)" font-size="24" font-family="Calibri" font-weight="bold"><tspan y="-259.06" x="566.16">C</tspan></text>
</g>
</g>
<g id="Layer-1" data-name="Span">
<clipPath id="cp41">
<path transform="matrix(1,0,0,-1,0,1247.28)" d="M .000013939 0 L 935.4 0 L 935.4 1247.28 L .000013939 1247.28 Z " fill-rule="evenodd"/>
</clipPath>
<g clip-path="url(#cp41)">
<text xml:space="preserve" transform="matrix(1 0 -0 1 0 1247.28)" font-size="24" font-family="Calibri"><tspan y="-259.06" x="578.88 591.528 604.128 612.16799 620.54397 633.11996 638.63998 644.06399 656.63998 665.0159">ontrol or </tspan></text>
</g>
</g>
<g id="Layer-1" data-name="Span">
<clipPath id="cp42">
<path transform="matrix(1,0,0,-1,0,1247.28)" d="M .000013939 0 L 935.4 0 L 935.4 1247.28 L .000013939 1247.28 Z " fill-rule="evenodd"/>
</clipPath>
<g clip-path="url(#cp42)">
<text xml:space="preserve" transform="matrix(1 0 -0 1 0 1247.28)" font-size="24" font-family="Calibri" font-weight="bold"><tspan y="-259.06" x="670.44">C</tspan></text>
</g>
</g>
<g id="Layer-1" data-name="Span">
<clipPath id="cp43">
<path transform="matrix(1,0,0,-1,0,1247.28)" d="M .000013939 0 L 935.4 0 L 935.4 1247.28 L .000013939 1247.28 Z " fill-rule="evenodd"/>
</clipPath>
<g clip-path="url(#cp43)">
<text xml:space="preserve" transform="matrix(1 0 -0 1 0 1247.28)" font-size="24" font-family="Calibri"><tspan y="-259.06" x="683.16 695.808 714.984 727.584 739.07998 747.45596 752.97598 762.3599 775.00796 787.6079 793.0319 804.98397">omparison = </tspan></text>
</g>
</g>
<g id="Layer-1" data-name="Span">
<clipPath id="cp44">
<path transform="matrix(1,0,0,-1,0,1247.28)" d="M .000013939 0 L 935.4 0 L 935.4 1247.28 L .000013939 1247.28 Z " fill-rule="evenodd"/>
</clipPath>
<g clip-path="url(#cp44)">
<text xml:space="preserve" transform="matrix(1 0 -0 1 0 1247.28)" font-size="24" font-family="Calibri"><tspan y="-259.06" x="810.26 825.76406 838.34">Non</tspan></text>
</g>
</g>
<g id="Layer-1" data-name="Span">
<clipPath id="cp45">
<path transform="matrix(1,0,0,-1,0,1247.28)" d="M .000013939 0 L 935.4 0 L 935.4 1247.28 L .000013939 1247.28 Z " fill-rule="evenodd"/>
</clipPath>
<g clip-path="url(#cp45)">
<text xml:space="preserve" transform="matrix(1 0 -0 1 0 1247.28)" font-size="24" font-family="Calibri"><tspan y="-259.06" x="850.94">-</tspan></text>
</g>
</g>
<g id="Layer-1" data-name="Span">
<clipPath id="cp46">
<path transform="matrix(1,0,0,-1,0,1247.28)" d="M .000013939 0 L 935.4 0 L 935.4 1247.28 L .000013939 1247.28 Z " fill-rule="evenodd"/>
</clipPath>
<g clip-path="url(#cp46)">
<text xml:space="preserve" transform="matrix(1 0 -0 1 0 1247.28)" font-size="24" font-family="Calibri"><tspan y="-230.02" x="566.16 585.336 596.208 606.456 619.104 627.48 635.85598 648.45596 653.97598 663.45596">mycorrhiza</tspan></text>
</g>
</g>
<g id="Layer-1" data-name="Span">
<clipPath id="cp47">
<path transform="matrix(1,0,0,-1,0,1247.28)" d="M .000013939 0 L 935.4 0 L 935.4 1247.28 L .000013939 1247.28 Z " fill-rule="evenodd"/>
</clipPath>
<g clip-path="url(#cp47)">
<text xml:space="preserve" transform="matrix(1 0 -0 1 0 1247.28)" font-size="15.96" font-family="ArialMT"><tspan y="-201.22" x="557.26">&#x2022;</tspan></text>
</g>
</g>
<g id="Layer-1" data-name="Span">
<clipPath id="cp48">
<path transform="matrix(1,0,0,-1,0,1247.28)" d="M .000013939 0 L 935.4 0 L 935.4 1247.28 L .000013939 1247.28 Z " fill-rule="evenodd"/>
</clipPath>
<g clip-path="url(#cp48)">
<text xml:space="preserve" transform="matrix(1 0 -0 1 0 1247.28)" font-size="24" font-family="Calibri" font-weight="bold"><tspan y="-201.22" x="566.16">O</tspan></text>
</g>
</g>
<g id="Layer-1" data-name="Span">
<clipPath id="cp49">
<path transform="matrix(1,0,0,-1,0,1247.28)" d="M .000013939 0 L 935.4 0 L 935.4 1247.28 L .000013939 1247.28 Z " fill-rule="evenodd"/>
</clipPath>
<g clip-path="url(#cp49)">
<text xml:space="preserve" transform="matrix(1 0 -0 1 0 1247.28)" font-size="24" font-family="Calibri"><tspan y="-201.22" x="582.36 594.95999 602.99996 613.1519 625.7999 644.97598 656.97598 662.256 674.208 679.632 689.71206 695.23208 703.27206 711.312 723.312 731.688 736.992 749.592 761.544 771.768 784.416 803.59207 816.192 828.768 838.152 843.672 851.712 857.232 869.808">utcome = Litter decomposition</tspan></text>
</g>
</g>
<g id="Layer-1" data-name="P">
<path transform="matrix(1,0,0,-1,0,1247.28)" d="M 467.64 894.5 L 518.31 894.5 L 518.31 893.5 L 467.64 893.5 Z M 517.31 897 L 523.31 894 L 517.31 891 Z " fill="#4472c4"/>
</g>
<g id="Layer-1" data-name="P">
<path transform="matrix(1,0,0,-1,0,1247.28)" d="M 467.64 570.38 L 518.31 570.38 L 518.31 569.38 L 467.64 569.38 Z M 517.31 572.88 L 523.31 569.88 L 517.31 566.88 Z " fill="#4472c4"/>
</g>
<g id="Layer-1" data-name="P">
<path transform="matrix(1,0,0,-1,0,1247.28)" d="M 467.64 408.5 L 518.31 408.5 L 518.31 407.5 L 467.64 407.5 Z M 517.31 411 L 523.31 408 L 517.31 405 Z " fill="#4472c4"/>
</g>
<g id="Layer-1" data-name="P">
<path transform="matrix(1,0,0,-1,0,1247.28)" d="M 359.66 844.44 L 359.66 788.91 L 358.66 788.91 L 358.66 844.44 Z M 362.16 789.91 L 359.16 783.91 L 356.16 789.91 Z " fill="#4472c4"/>
</g>
<g id="Layer-1" data-name="P">
<path transform="matrix(1,0,0,-1,0,1247.28)" d="M 360.14 521.64 L 360.14 466.74 L 359.14 466.74 L 359.14 521.64 Z M 362.64 467.74 L 359.64 461.74 L 356.64 467.74 Z " fill="#4472c4"/>
</g>
<g id="Layer-1" data-name="P">
<path transform="matrix(1,0,0,-1,0,1247.28)" d="M 359.66 346.92 L 359.66 144.24 L 358.66 144.24 L 358.66 346.92 Z M 362.16 145.25 L 359.16 139.24 L 356.16 145.24 Z " fill="#4472c4"/>
</g>
<g id="Layer-1" data-name="P">
<path transform="matrix(1,0,0,-1,0,1247.28)" stroke-width="1" stroke-linecap="butt" stroke-miterlimit="10" stroke-linejoin="miter" fill="none" stroke="#31538f" d="M 87.48 192 L 316.80003 192 L 316.80003 300.96 L 87.48 300.96 Z "/>
</g>
<g id="Layer-1" data-name="Span">
<clipPath id="cp50">
<path transform="matrix(1,0,0,-1,0,1247.28)" d="M .000013939 0 L 935.4 0 L 935.4 1247.28 L .000013939 1247.28 Z " fill-rule="evenodd"/>
</clipPath>
<g clip-path="url(#cp50)">
<text xml:space="preserve" transform="matrix(1 0 -0 1 0 1247.28)" font-size="24" font-family="Calibri"><tspan y="-267.14" x="99.6 112.007999 120.383998">Pre</tspan></text>
</g>
</g>
<g id="Layer-1" data-name="Span">
<clipPath id="cp51">
<path transform="matrix(1,0,0,-1,0,1247.28)" d="M .000013939 0 L 935.4 0 L 935.4 1247.28 L .000013939 1247.28 Z " fill-rule="evenodd"/>
</clipPath>
<g clip-path="url(#cp51)">
<text xml:space="preserve" transform="matrix(1 0 -0 1 0 1247.28)" font-size="24" font-family="Calibri"><tspan y="-267.14" x="132.36">-</tspan></text>
</g>
</g>
<g id="Layer-1" data-name="Span">
<clipPath id="cp52">
<path transform="matrix(1,0,0,-1,0,1247.28)" d="M .000013939 0 L 935.4 0 L 935.4 1247.28 L .000013939 1247.28 Z " fill-rule="evenodd"/>
</clipPath>
<g clip-path="url(#cp52)">
<text xml:space="preserve" transform="matrix(1 0 -0 1 0 1247.28)" font-size="24" font-family="Calibri"><tspan y="-267.14" x="139.68 149.064 159.216 167.59201 179.61602 191.56801 204.16802 216.19202 228.79203 234.21602 245.71202 254.08803 262.12803 267.648 277.80003 283.32 295.368 304.752">screened articles </tspan></text>
</g>
</g>
<g id="Layer-1" data-name="Span">
<clipPath id="cp53">
<path transform="matrix(1,0,0,-1,0,1247.28)" d="M .000013939 0 L 935.4 0 L 935.4 1247.28 L .000013939 1247.28 Z " fill-rule="evenodd"/>
</clipPath>
<g clip-path="url(#cp53)">
<text xml:space="preserve" transform="matrix(1 0 -0 1 0 1247.28)" font-size="24" font-family="Calibri"><tspan y="-238.34" x="108.96 116.28 124.656 137.304 156.48 161.90399 174.47998 182.51998 195.11998 207.07198 215.49599 220.77599 230.15999 242.73598 255.33599 263.71199 273.912 285.86399 295.248">from other sources </tspan></text>
</g>
</g>
<g id="Layer-1" data-name="Span">
<clipPath id="cp54">
<path transform="matrix(1,0,0,-1,0,1247.28)" d="M .000013939 0 L 935.4 0 L 935.4 1247.28 L .000013939 1247.28 Z " fill-rule="evenodd"/>
</clipPath>
<g clip-path="url(#cp54)">
<text xml:space="preserve" transform="matrix(1 0 -0 1 0 1247.28)" font-size="24" font-family="Calibri"><tspan y="-209.54" x="168.48 175.752 188.42401 193.70401 205.656 211.08 223.248 228.672">(n = 2 )</tspan></text>
</g>
</g>
<g id="Layer-1" data-name="P">
<path transform="matrix(1,0,0,-1,0,1247.28)" d="M 316.8 246.62 L 354.2 246.62 L 354.2 245.62 L 316.8 245.62 Z M 353.2 249.12 L 359.2 246.12 L 353.2 243.12 Z " fill="#4472c4"/>
</g>
<g id="Layer-1" data-name="P">
<path transform="matrix(1,0,0,-1,0,1247.28)" d="M 198.6 29.28 L 467.64 29.28 L 467.64 139.32 L 198.6 139.32 Z " fill="#ffffff" fill-rule="evenodd"/>
<path transform="matrix(1,0,0,-1,0,1247.28)" stroke-width="1" stroke-linecap="butt" stroke-miterlimit="10" stroke-linejoin="miter" fill="none" stroke="#31538f" d="M 198.6 29.28 L 467.64 29.28 L 467.64 139.32 L 198.6 139.32 Z "/>
</g>
<g id="Layer-1" data-name="Span">
<clipPath id="cp55">
<path transform="matrix(1,0,0,-1,0,1247.28)" d="M .000013939 0 L 935.4 0 L 935.4 1247.28 L .000013939 1247.28 Z " fill-rule="evenodd"/>
</clipPath>
<g clip-path="url(#cp55)">
<text xml:space="preserve" transform="matrix(1 0 -0 1 0 1247.28)" font-size="24" font-family="Calibri"><tspan y="-104.93" x="222.29 233.306 241.346 254.018 266.618 272.138 284.162 293.546 298.826 304.34599 316.94599 327.16999 332.68998 345.28999 357.88999 369.938 382.538 387.962 393.482 406.082 411.506 419.54603 432.14604 444.19404">Studies included in the </tspan></text>
</g>
</g>
<g id="Layer-1" data-name="Span">
<clipPath id="cp56">
<path transform="matrix(1,0,0,-1,0,1247.28)" d="M .000013939 0 L 935.4 0 L 935.4 1247.28 L .000013939 1247.28 Z " fill-rule="evenodd"/>
</clipPath>
<g clip-path="url(#cp56)">
<text xml:space="preserve" transform="matrix(1 0 -0 1 0 1247.28)" font-size="24" font-family="Calibri"><tspan y="-76.128" x="300.19 308.566 320.566 331.414 336.934 348.886">review</tspan></text>
</g>
</g>
<g id="Layer-1" data-name="Span">
<clipPath id="cp57">
<path transform="matrix(1,0,0,-1,0,1247.28)" d="M .000013939 0 L 935.4 0 L 935.4 1247.28 L .000013939 1247.28 Z " fill-rule="evenodd"/>
</clipPath>
<g clip-path="url(#cp57)">
<text xml:space="preserve" transform="matrix(1 0 -0 1 0 1247.28)" font-size="24" font-family="Calibri"><tspan y="-47.328" x="302.11 309.382 321.982 327.31 339.262 344.686 356.854">(n = 5)</tspan></text>
</g>
</g>
<g id="Layer-1" data-name="P">
<path transform="matrix(1,0,0,-1,0,1247.28)" d="M 467.65 731.35 L 518.32 732.25 L 518.3 733.25 L 467.63 732.35 Z M 517.37 729.73 L 523.31 732.84 L 517.26 735.73 Z " fill="#4472c4"/>
</g>
<g id="Layer-1" data-name="P">
<path transform="matrix(1,0,0,-1,0,1247.28)" d="M 359.9 682.92 L 359.9 629.91 L 358.9 629.91 L 358.9 682.92 Z M 362.4 630.91 L 359.4 624.91 L 356.4 630.91 Z " fill="#4472c4"/>
</g>
<g id="Layer-1" data-name="P">
<path transform="matrix(1,0,0,-1,0,1247.28)" d="M 360.14 1087.92 L 360.14 951.48 L 359.14 951.48 L 359.14 1087.92 Z M 362.64 952.48 L 359.64 946.48 L 356.64 952.48 Z " fill="#3f6ec3"/>
</g>
<g id="Layer-1" data-name="P">
<path transform="matrix(1,0,0,-1,0,1247.28)" stroke-width=".75" stroke-linecap="butt" stroke-linejoin="round" fill="none" stroke="#3f6ec3" d="M 739.16 1087.92 L 739 1087.92 L 739 1003.21 L 359.64 1003.21 "/>
</g>
</g>
</g>
</svg>
